<?xml version="1.0" standalone="no"?>
<!DOCTYPE svg PUBLIC "-//W3C//DTD SVG 20010904//EN"
 "http://www.w3.org/TR/2001/REC-SVG-20010904/DTD/svg10.dtd">
<svg version="1.0" xmlns="http://www.w3.org/2000/svg"
 width="512.000000pt" height="512.000000pt" viewBox="0 0 512.000000 512.000000"
 preserveAspectRatio="xMidYMid meet">
<metadata>
Created by potrace 1.14, written by Peter Selinger 2001-2017
</metadata>
<g transform="translate(0.000000,512.000000) scale(0.100000,-0.100000)"
fill="#000000" stroke="none">
<path d="M2856 3741 c9 -20 18 -44 21 -53 3 -10 10 -18 17 -19 92 -8 136 -8
136 1 0 5 -5 30 -12 55 -12 45 -12 45 -58 46 -25 1 -62 3 -82 4 l-37 3 15 -37z"/>
<path d="M2383 3663 c-35 -21 -63 -40 -63 -43 0 -3 24 -31 53 -64 l53 -58 58
37 c40 26 56 41 52 52 -7 18 -79 112 -86 112 -3 1 -33 -16 -67 -36z"/>
<path d="M3442 3600 c0 -23 6 -35 26 -47 15 -9 43 -27 63 -40 43 -29 44 -29
47 1 1 20 -11 34 -62 70 -36 25 -66 46 -69 46 -2 0 -4 -14 -5 -30z"/>
<path d="M2935 3613 c-120 -12 -247 -49 -365 -108 -318 -160 -576 -474 -750
-914 -58 -146 -129 -378 -145 -472 -3 -19 -8 -42 -11 -51 -7 -23 -25 -121 -39
-208 -3 -19 -7 -46 -10 -60 -2 -14 -7 -45 -10 -70 -3 -25 -8 -61 -10 -80 -6
-41 -11 -97 -20 -202 l-7 -78 587 0 c555 0 587 1 580 18 -72 175 -142 445
-172 659 -10 75 -10 381 0 453 63 440 338 803 642 847 83 12 149 9 245 -10 44
-9 133 -43 196 -75 l61 -31 11 33 c7 19 10 40 7 47 -6 15 -144 124 -205 163
-58 36 -200 93 -277 110 -39 9 -114 18 -165 22 -51 3 -97 6 -103 7 -5 2 -23 1
-40 0z"/>
<path d="M1891 3248 c-29 -38 -51 -71 -49 -73 15 -13 150 -95 157 -95 5 0 28
28 51 62 l42 63 -32 26 c-17 15 -50 40 -74 57 l-42 31 -53 -71z"/>
<path d="M3432 3258 c1 -33 1 -33 53 -35 48 -1 51 0 51 23 0 13 -5 24 -10 25
-6 0 -18 2 -26 5 -70 18 -70 18 -68 -18z"/>
<path d="M3098 3253 c-21 -8 -38 -19 -38 -23 0 -5 9 -29 20 -54 l20 -47 40 21
c43 22 44 29 19 98 -10 26 -12 26 -61 5z"/>
<path d="M2822 3034 l-31 -36 42 -59 c23 -32 45 -59 48 -59 4 0 18 17 32 38
l25 38 -35 57 c-19 31 -38 57 -43 57 -4 0 -21 -16 -38 -36z"/>
<path d="M1536 2637 c-15 -45 -30 -87 -32 -93 -4 -9 185 -90 191 -82 12 16 55
172 49 177 -5 4 -34 18 -64 31 -30 13 -69 29 -86 36 l-30 13 -28 -82z"/>
<path d="M2655 2664 l-17 -58 58 -54 c31 -29 60 -49 64 -45 4 4 12 28 19 52
l13 44 -60 60 -60 60 -17 -59z"/>
<path d="M2603 2225 c1 -62 2 -65 31 -76 17 -7 57 -25 89 -40 l58 -28 -6 42
c-12 91 -11 90 -88 130 -40 20 -76 37 -79 37 -3 0 -6 -29 -5 -65z"/>
<path d="M1314 1863 c-19 -71 -27 -113 -20 -114 6 -1 20 -3 31 -4 63 -9 105
-14 145 -17 l45 -3 22 95 c12 52 22 100 23 105 0 6 -49 20 -108 31 l-108 19
-30 -112z"/>
<path d="M2670 1755 c0 -8 49 -148 53 -152 3 -2 31 -6 63 -9 33 -2 78 -6 101
-9 l42 -4 -11 32 c-7 17 -17 43 -25 57 -7 14 -13 30 -13 36 0 6 -17 14 -37 18
-54 9 -93 16 -135 26 -21 4 -38 7 -38 5z"/>
</g>
</svg>
