<?xml version="1.0" standalone="no"?>
<!DOCTYPE svg PUBLIC "-//W3C//DTD SVG 20010904//EN"
 "http://www.w3.org/TR/2001/REC-SVG-20010904/DTD/svg10.dtd">
<svg version="1.0" xmlns="http://www.w3.org/2000/svg"
 width="401.000000pt" height="401.000000pt" viewBox="0 0 401.000000 401.000000"
 preserveAspectRatio="xMidYMid meet">
<metadata>
Created by potrace 1.14, written by Peter Selinger 2001-2017
</metadata>
<g transform="translate(0.000000,401.000000) scale(0.100000,-0.100000)"
fill="#000000" stroke="none">
<path d="M715 3873 c-54 -18 -111 -66 -138 -116 l-22 -42 -2 -1705 -3 -1705
24 -50 c25 -55 70 -99 126 -124 31 -13 205 -15 1560 -16 1267 -1 1533 1 1573
12 61 18 114 65 143 128 l24 50 0 1695 c0 1685 -1 1695 -21 1740 -25 56 -62
95 -114 123 l-40 22 -1535 1 c-1266 1 -1542 -2 -1575 -13z m2702 -539 c66 -32
113 -92 128 -164 6 -31 10 -460 9 -1174 l-1 -1124 -27 -57 c-22 -44 -40 -64
-84 -93 l-55 -37 -1076 0 c-592 0 -1085 3 -1096 6 -73 22 -127 70 -158 139
-20 44 -20 67 -20 1180 0 804 3 1147 11 1175 22 78 85 140 172 168 8 3 493 6
1078 6 l1063 1 56 -26z"/>
<path d="M1136 3253 c-52 -56 -59 -88 -57 -269 l1 -71 638 0 c617 0 639 -1
683 -20 25 -11 57 -36 70 -54 l24 -34 2 -837 c2 -817 2 -838 -18 -882 -23 -53
-77 -101 -128 -113 -20 -5 -314 -9 -653 -8 l-618 0 0 -28 c0 -73 61 -147 135
-164 69 -16 1602 -15 1607 1 2 6 3 542 3 1192 -1 1161 -1 1181 -21 1215 -11
18 -39 47 -63 64 l-43 30 -768 3 -769 3 -25 -28z"/>
<path d="M1084 2869 c-5 -9 -8 -228 -2 -234 2 -2 100 -5 218 -5 232 -2 254 -6
287 -57 17 -25 18 -71 19 -608 1 -636 3 -618 -59 -655 -29 -18 -51 -20 -248
-20 l-217 0 -3 -37 c-2 -21 -2 -76 1 -123 l5 -85 370 0 c204 0 376 1 383 3 9
3 12 183 12 853 0 935 2 905 -61 950 -28 20 -43 21 -365 22 -185 1 -338 -1
-340 -4z"/>
<path d="M385 3272 c-11 -2 -35 -15 -54 -29 -68 -52 -64 35 -63 -1343 0 -685
3 -1253 5 -1263 6 -31 58 -88 93 -103 18 -8 58 -14 89 -14 l55 0 0 1381 0
1380 -52 -2 c-29 -2 -62 -5 -73 -7z"/>
<path d="M140 2871 c-38 -5 -81 -40 -100 -82 -15 -36 -17 -108 -16 -938 1
-883 1 -899 21 -921 11 -12 28 -26 38 -32 20 -10 112 -19 131 -12 8 3 11 249
11 996 l0 991 -30 1 c-16 1 -41 -1 -55 -3z"/>
</g>
</svg>
